<svg xmlns="http://www.w3.org/2000/svg" xmlns:xlink="http://www.w3.org/1999/xlink" width="192" zoomAndPan="magnify" viewBox="0 0 144 31.5" height="42" preserveAspectRatio="xMidYMid meet" version="1.0"><defs><g/><clipPath id="90589b7b10"><path d="M 1.125 0 L 142.875 0 L 142.875 31.007812 L 1.125 31.007812 Z M 1.125 0 " clip-rule="nonzero"/></clipPath><clipPath id="608912b79b"><path d="M 1.125 0 L 39.171875 0 L 39.171875 31.007812 L 1.125 31.007812 Z M 1.125 0 " clip-rule="nonzero"/></clipPath><clipPath id="cd13f80cf3"><path d="M 0.125 0 L 38.171875 0 L 38.171875 31.007812 L 0.125 31.007812 Z M 0.125 0 " clip-rule="nonzero"/></clipPath><clipPath id="9f40b79583"><rect x="0" width="39" y="0" height="32"/></clipPath><clipPath id="bd11fdb9b2"><path d="M 19 7 L 23 7 L 23 11.53125 L 19 11.53125 Z M 19 7 " clip-rule="nonzero"/></clipPath><clipPath id="e748b3bffe"><rect x="0" width="36" y="0" height="12"/></clipPath><clipPath id="9994a56d9c"><path d="M 14 8 L 26 8 L 26 20 L 14 20 Z M 14 8 " clip-rule="nonzero"/></clipPath><clipPath id="c0d84f11c0"><path d="M 5.664062 3.101562 L 37.15625 7.128906 L 34.8125 25.4375 L 3.324219 21.410156 Z M 5.664062 3.101562 " clip-rule="nonzero"/></clipPath><clipPath id="39d8cc0154"><path d="M 5.664062 3.101562 L 37.15625 7.128906 L 34.8125 25.4375 L 3.324219 21.410156 Z M 5.664062 3.101562 " clip-rule="nonzero"/></clipPath><clipPath id="7c1eda5a63"><path d="M 16 10 L 24 10 L 24 18 L 16 18 Z M 16 10 " clip-rule="nonzero"/></clipPath><clipPath id="63318aabea"><path d="M 5.664062 3.101562 L 37.15625 7.128906 L 34.8125 25.4375 L 3.324219 21.410156 Z M 5.664062 3.101562 " clip-rule="nonzero"/></clipPath><clipPath id="a1509949fc"><path d="M 5.664062 3.101562 L 37.15625 7.128906 L 34.8125 25.4375 L 3.324219 21.410156 Z M 5.664062 3.101562 " clip-rule="nonzero"/></clipPath><clipPath id="0176543354"><path d="M 18 12 L 22 12 L 22 16 L 18 16 Z M 18 12 " clip-rule="nonzero"/></clipPath><clipPath id="f2d8592dba"><path d="M 5.664062 3.101562 L 37.15625 7.128906 L 34.8125 25.4375 L 3.324219 21.410156 Z M 5.664062 3.101562 " clip-rule="nonzero"/></clipPath><clipPath id="438399e496"><path d="M 5.664062 3.101562 L 37.15625 7.128906 L 34.8125 25.4375 L 3.324219 21.410156 Z M 5.664062 3.101562 " clip-rule="nonzero"/></clipPath><clipPath id="060e1a6180"><path d="M 16 16 L 18 16 L 18 18 L 16 18 Z M 16 16 " clip-rule="nonzero"/></clipPath><clipPath id="5ddfad973e"><path d="M 5.664062 3.101562 L 37.15625 7.128906 L 34.8125 25.4375 L 3.324219 21.410156 Z M 5.664062 3.101562 " clip-rule="nonzero"/></clipPath><clipPath id="481c733791"><path d="M 5.664062 3.101562 L 37.15625 7.128906 L 34.8125 25.4375 L 3.324219 21.410156 Z M 5.664062 3.101562 " clip-rule="nonzero"/></clipPath><clipPath id="34acf7c510"><path d="M 5 4 L 37 4 L 37 21 L 5 21 Z M 5 4 " clip-rule="nonzero"/></clipPath><clipPath id="9f0adb4bb2"><path d="M 5.664062 3.101562 L 37.15625 7.128906 L 34.8125 25.4375 L 3.324219 21.410156 Z M 5.664062 3.101562 " clip-rule="nonzero"/></clipPath><clipPath id="39e54dfcb1"><path d="M 5.664062 3.101562 L 37.15625 7.128906 L 34.8125 25.4375 L 3.324219 21.410156 Z M 5.664062 3.101562 " clip-rule="nonzero"/></clipPath><clipPath id="b6bd901000"><path d="M 6.25 3.175781 L 36.960938 7.105469 L 35.09375 21.703125 L 4.382812 17.773438 Z M 6.25 3.175781 " clip-rule="nonzero"/></clipPath><clipPath id="1185954e32"><path d="M 3 8 L 36 8 L 36 24 L 3 24 Z M 3 8 " clip-rule="nonzero"/></clipPath><clipPath id="05a80d522b"><path d="M 5.664062 3.101562 L 37.15625 7.128906 L 34.8125 25.4375 L 3.324219 21.410156 Z M 5.664062 3.101562 " clip-rule="nonzero"/></clipPath><clipPath id="16c887b2d0"><path d="M 5.664062 3.101562 L 37.15625 7.128906 L 34.8125 25.4375 L 3.324219 21.410156 Z M 5.664062 3.101562 " clip-rule="nonzero"/></clipPath><clipPath id="d5ba8a314d"><path d="M 5.203125 6.789062 L 35.914062 10.71875 L 34.042969 25.339844 L 3.332031 21.410156 Z M 5.203125 6.789062 " clip-rule="nonzero"/></clipPath></defs><g clip-path="url(#90589b7b10)"><path fill="#ffffff" d="M 1.125 0 L 142.875 0 L 142.875 31.007812 L 1.125 31.007812 Z M 1.125 0 " fill-opacity="1" fill-rule="nonzero"/><path fill="#1892ce" d="M 1.125 0 L 142.875 0 L 142.875 31.007812 L 1.125 31.007812 Z M 1.125 0 " fill-opacity="1" fill-rule="nonzero"/></g><g clip-path="url(#608912b79b)"><g transform="matrix(1, 0, 0, 1, 1, -0.000000000000002895)"><g clip-path="url(#9f40b79583)"><g clip-path="url(#cd13f80cf3)"><path fill="#ffffff" d="M 0.125 0 L 38.15625 0 L 38.15625 31.007812 L 0.125 31.007812 Z M 0.125 0 " fill-opacity="1" fill-rule="nonzero"/></g></g></g></g><g fill="#ffffff" fill-opacity="1"><g transform="translate(41.243776, 12.550781)"><g><path d="M 2.53125 -1.984375 C 2.53125 -1.410156 2.628906 -0.972656 2.828125 -0.671875 C 3.023438 -0.367188 3.378906 -0.21875 3.890625 -0.21875 C 4.398438 -0.21875 4.789062 -0.375 5.0625 -0.6875 C 5.332031 -1.007812 5.46875 -1.492188 5.46875 -2.140625 L 5.46875 -6.359375 L 4.875 -6.359375 L 4.875 -6.546875 L 6.234375 -6.546875 L 6.234375 -6.359375 L 5.71875 -6.359375 L 5.71875 -2.203125 C 5.71875 -1.429688 5.546875 -0.851562 5.203125 -0.46875 C 4.859375 -0.09375 4.25 0.09375 3.375 0.09375 C 2.507812 0.09375 1.847656 -0.0820312 1.390625 -0.4375 C 0.929688 -0.800781 0.703125 -1.425781 0.703125 -2.3125 L 0.703125 -6.359375 L 0.203125 -6.359375 L 0.203125 -6.546875 L 3.140625 -6.546875 L 3.140625 -6.359375 L 2.53125 -6.359375 Z M 2.53125 -1.984375 "/></g></g></g><g fill="#ffffff" fill-opacity="1"><g transform="translate(47.532155, 12.550781)"><g><path d="M 3.03125 -0.109375 C 3.34375 -0.109375 3.617188 -0.191406 3.859375 -0.359375 C 4.097656 -0.523438 4.21875 -0.773438 4.21875 -1.109375 C 4.21875 -1.453125 4.085938 -1.710938 3.828125 -1.890625 C 3.578125 -2.078125 3.210938 -2.234375 2.734375 -2.359375 C 2.253906 -2.492188 1.90625 -2.613281 1.6875 -2.71875 C 1.476562 -2.820312 1.273438 -2.953125 1.078125 -3.109375 C 0.691406 -3.429688 0.5 -3.929688 0.5 -4.609375 C 0.5 -5.171875 0.695312 -5.648438 1.09375 -6.046875 C 1.488281 -6.441406 2.03125 -6.640625 2.71875 -6.640625 C 3.050781 -6.640625 3.394531 -6.59375 3.75 -6.5 C 4.101562 -6.40625 4.320312 -6.359375 4.40625 -6.359375 C 4.5 -6.359375 4.582031 -6.421875 4.65625 -6.546875 L 4.75 -6.546875 L 4.828125 -4.65625 L 4.671875 -4.65625 C 4.367188 -5.195312 4.054688 -5.628906 3.734375 -5.953125 C 3.410156 -6.285156 3.054688 -6.453125 2.671875 -6.453125 C 2.285156 -6.453125 1.984375 -6.363281 1.765625 -6.1875 C 1.554688 -6.007812 1.453125 -5.769531 1.453125 -5.46875 C 1.453125 -5.175781 1.578125 -4.945312 1.828125 -4.78125 C 2.085938 -4.625 2.398438 -4.492188 2.765625 -4.390625 C 3.128906 -4.296875 3.367188 -4.226562 3.484375 -4.1875 C 3.597656 -4.15625 3.738281 -4.101562 3.90625 -4.03125 C 4.082031 -3.96875 4.222656 -3.898438 4.328125 -3.828125 C 4.441406 -3.765625 4.5625 -3.675781 4.6875 -3.5625 C 4.8125 -3.457031 4.90625 -3.335938 4.96875 -3.203125 C 5.132812 -2.898438 5.21875 -2.546875 5.21875 -2.140625 C 5.21875 -1.460938 5.007812 -0.921875 4.59375 -0.515625 C 4.175781 -0.109375 3.625 0.09375 2.9375 0.09375 C 2.582031 0.09375 2.175781 0.046875 1.71875 -0.046875 C 1.257812 -0.140625 1.003906 -0.1875 0.953125 -0.1875 C 0.867188 -0.1875 0.785156 -0.09375 0.703125 0.09375 L 0.5625 0.09375 L 0.46875 -2.125 L 0.640625 -2.125 C 0.910156 -1.582031 1.257812 -1.109375 1.6875 -0.703125 C 2.113281 -0.304688 2.5625 -0.109375 3.03125 -0.109375 Z M 3.03125 -0.109375 "/></g></g></g><g fill="#ffffff" fill-opacity="1"><g transform="translate(53.138466, 12.550781)"><g><path d="M 0.203125 -6.546875 L 3.109375 -6.546875 L 3.109375 -6.359375 L 2.5625 -6.359375 L 2.5625 -3.46875 L 4.421875 -3.46875 L 4.421875 -6.359375 L 3.875 -6.359375 L 3.875 -6.546875 L 6.796875 -6.546875 L 6.796875 -6.359375 L 6.25 -6.359375 L 6.25 -0.171875 L 6.796875 -0.171875 L 6.796875 0 L 3.875 0 L 3.875 -0.171875 L 4.421875 -0.171875 L 4.421875 -3.21875 L 2.5625 -3.21875 L 2.5625 -0.171875 L 3.109375 -0.171875 L 3.109375 0 L 0.203125 0 L 0.203125 -0.171875 L 0.75 -0.171875 L 0.75 -6.359375 L 0.203125 -6.359375 Z M 0.203125 -6.546875 "/></g></g></g><g fill="#ffffff" fill-opacity="1"><g transform="translate(60.137009, 12.550781)"><g><path d="M 4.6875 -2.890625 L 4.6875 -3.578125 C 4.6875 -4.710938 4.628906 -5.429688 4.515625 -5.734375 C 4.390625 -6.078125 4.210938 -6.289062 3.984375 -6.375 C 3.847656 -6.425781 3.6875 -6.453125 3.5 -6.453125 C 3.3125 -6.453125 3.148438 -6.425781 3.015625 -6.375 C 2.890625 -6.320312 2.78125 -6.234375 2.6875 -6.109375 C 2.601562 -5.984375 2.535156 -5.851562 2.484375 -5.71875 C 2.429688 -5.582031 2.390625 -5.390625 2.359375 -5.140625 C 2.316406 -4.773438 2.296875 -4.242188 2.296875 -3.546875 L 2.296875 -2.875 C 2.296875 -2.113281 2.320312 -1.570312 2.375 -1.25 C 2.4375 -0.925781 2.515625 -0.695312 2.609375 -0.5625 C 2.796875 -0.257812 3.09375 -0.109375 3.5 -0.109375 C 3.988281 -0.109375 4.304688 -0.3125 4.453125 -0.71875 C 4.609375 -1.132812 4.6875 -1.859375 4.6875 -2.890625 Z M 3.484375 0.09375 C 2.441406 0.09375 1.664062 -0.1875 1.15625 -0.75 C 0.644531 -1.3125 0.390625 -2.125 0.390625 -3.1875 C 0.390625 -4.257812 0.660156 -5.101562 1.203125 -5.71875 C 1.753906 -6.332031 2.535156 -6.640625 3.546875 -6.640625 C 4.554688 -6.640625 5.316406 -6.347656 5.828125 -5.765625 C 6.347656 -5.179688 6.609375 -4.351562 6.609375 -3.28125 C 6.609375 -2.21875 6.347656 -1.390625 5.828125 -0.796875 C 5.304688 -0.203125 4.523438 0.09375 3.484375 0.09375 Z M 3.484375 0.09375 "/></g></g></g><g fill="#ffffff" fill-opacity="1"><g transform="translate(67.126201, 12.550781)"><g><path d="M 6.671875 -3.375 C 6.671875 -2.09375 6.3125 -1.203125 5.59375 -0.703125 C 4.925781 -0.234375 4.007812 0 2.84375 0 L 0.203125 0 L 0.203125 -0.171875 L 0.8125 -0.171875 L 0.8125 -6.359375 L 0.203125 -6.359375 L 0.203125 -6.546875 L 3.078125 -6.546875 C 4.273438 -6.546875 5.171875 -6.300781 5.765625 -5.8125 C 6.367188 -5.320312 6.671875 -4.507812 6.671875 -3.375 Z M 2.640625 -0.171875 L 2.984375 -0.171875 C 3.617188 -0.171875 4.070312 -0.394531 4.34375 -0.84375 C 4.613281 -1.289062 4.75 -2.035156 4.75 -3.078125 L 4.75 -3.625 C 4.75 -5.03125 4.476562 -5.875 3.9375 -6.15625 C 3.6875 -6.289062 3.328125 -6.359375 2.859375 -6.359375 L 2.640625 -6.359375 Z M 2.640625 -0.171875 "/></g></g></g><g fill="#ffffff" fill-opacity="1"><g transform="translate(73.573263, 12.550781)"><g><path d="M 4.03125 -0.171875 L 3.359375 -2.203125 L 1.5 -2.203125 L 0.78125 -0.171875 L 1.484375 -0.171875 L 1.484375 0 L 0.0625 0 L 0.0625 -0.171875 L 0.5 -0.171875 L 2.875 -6.59375 L 3.640625 -6.59375 L 6 -0.171875 L 6.421875 -0.171875 L 6.421875 0 L 3.375 0 L 3.375 -0.171875 Z M 2.46875 -4.84375 L 1.59375 -2.40625 L 3.28125 -2.40625 Z M 2.46875 -4.84375 "/></g></g></g><g fill="#ffffff" fill-opacity="1"><g transform="translate(79.029769, 12.550781)"><g><path d="M 3.703125 -3.46875 L 5.03125 -6.390625 L 4.09375 -6.390625 L 4.09375 -6.546875 L 5.9375 -6.546875 L 5.9375 -6.390625 L 5.3125 -6.390625 L 3.90625 -3.265625 L 3.90625 -0.171875 L 4.46875 -0.171875 L 4.46875 0 L 1.515625 0 L 1.515625 -0.171875 L 2.078125 -0.171875 L 2.078125 -3.09375 L 0.5 -6.390625 L 0.0625 -6.390625 L 0.0625 -6.546875 L 3.046875 -6.546875 L 3.046875 -6.390625 L 2.4375 -6.390625 Z M 3.703125 -3.46875 "/></g></g></g><g fill="#ffffff" fill-opacity="1"><g transform="translate(83.991042, 12.550781)"><g><path d="M 4.03125 -0.171875 L 3.359375 -2.203125 L 1.5 -2.203125 L 0.78125 -0.171875 L 1.484375 -0.171875 L 1.484375 0 L 0.0625 0 L 0.0625 -0.171875 L 0.5 -0.171875 L 2.875 -6.59375 L 3.640625 -6.59375 L 6 -0.171875 L 6.421875 -0.171875 L 6.421875 0 L 3.375 0 L 3.375 -0.171875 Z M 2.46875 -4.84375 L 1.59375 -2.40625 L 3.28125 -2.40625 Z M 2.46875 -4.84375 "/></g></g></g><g fill="#ffffff" fill-opacity="1"><g transform="translate(90.475674, 12.550781)"><g/></g></g><g fill="#ffffff" fill-opacity="1"><g transform="translate(92.157568, 12.550781)"><g><path d="M 3.734375 -6.453125 C 2.773438 -6.453125 2.296875 -5.519531 2.296875 -3.65625 L 2.296875 -2.921875 C 2.296875 -2.035156 2.421875 -1.34375 2.671875 -0.84375 C 2.929688 -0.34375 3.304688 -0.09375 3.796875 -0.09375 C 4.484375 -0.09375 5.113281 -0.757812 5.6875 -2.09375 L 5.859375 -2.09375 L 5.796875 -0.015625 L 5.6875 -0.015625 C 5.65625 -0.078125 5.625 -0.125 5.59375 -0.15625 C 5.5625 -0.1875 5.515625 -0.203125 5.453125 -0.203125 C 5.390625 -0.203125 5.160156 -0.148438 4.765625 -0.046875 C 4.378906 0.046875 3.984375 0.09375 3.578125 0.09375 C 2.566406 0.09375 1.78125 -0.175781 1.21875 -0.71875 C 0.664062 -1.269531 0.390625 -2.09375 0.390625 -3.1875 C 0.390625 -4.289062 0.675781 -5.140625 1.25 -5.734375 C 1.832031 -6.335938 2.617188 -6.640625 3.609375 -6.640625 C 3.984375 -6.640625 4.351562 -6.59375 4.71875 -6.5 C 5.082031 -6.40625 5.296875 -6.359375 5.359375 -6.359375 C 5.421875 -6.359375 5.46875 -6.367188 5.5 -6.390625 C 5.53125 -6.421875 5.566406 -6.472656 5.609375 -6.546875 L 5.703125 -6.546875 L 5.78125 -4.515625 L 5.609375 -4.515625 C 5.328125 -5.140625 5.039062 -5.617188 4.75 -5.953125 C 4.457031 -6.285156 4.117188 -6.453125 3.734375 -6.453125 Z M 3.734375 -6.453125 "/></g></g></g><g fill="#ffffff" fill-opacity="1"><g transform="translate(98.604822, 12.550781)"><g><path d="M 0.203125 -6.546875 L 3.109375 -6.546875 L 3.109375 -6.359375 L 2.5625 -6.359375 L 2.5625 -3.46875 L 4.421875 -3.46875 L 4.421875 -6.359375 L 3.875 -6.359375 L 3.875 -6.546875 L 6.796875 -6.546875 L 6.796875 -6.359375 L 6.25 -6.359375 L 6.25 -0.171875 L 6.796875 -0.171875 L 6.796875 0 L 3.875 0 L 3.875 -0.171875 L 4.421875 -0.171875 L 4.421875 -3.21875 L 2.5625 -3.21875 L 2.5625 -0.171875 L 3.109375 -0.171875 L 3.109375 0 L 0.203125 0 L 0.203125 -0.171875 L 0.75 -0.171875 L 0.75 -6.359375 L 0.203125 -6.359375 Z M 0.203125 -6.546875 "/></g></g></g><g fill="#ffffff" fill-opacity="1"><g transform="translate(105.603364, 12.550781)"><g><path d="M 4.03125 -0.171875 L 3.359375 -2.203125 L 1.5 -2.203125 L 0.78125 -0.171875 L 1.484375 -0.171875 L 1.484375 0 L 0.0625 0 L 0.0625 -0.171875 L 0.5 -0.171875 L 2.875 -6.59375 L 3.640625 -6.59375 L 6 -0.171875 L 6.421875 -0.171875 L 6.421875 0 L 3.375 0 L 3.375 -0.171875 Z M 2.46875 -4.84375 L 1.59375 -2.40625 L 3.28125 -2.40625 Z M 2.46875 -4.84375 "/></g></g></g><g fill="#ffffff" fill-opacity="1"><g transform="translate(112.087996, 12.550781)"><g><path d="M 3.0625 -3.3125 L 2.5625 -3.3125 L 2.5625 -0.171875 L 3.171875 -0.171875 L 3.171875 0 L 0.140625 0 L 0.140625 -0.171875 L 0.75 -0.171875 L 0.75 -6.359375 L 0.140625 -6.359375 L 0.140625 -6.546875 L 2.96875 -6.546875 C 3.769531 -6.546875 4.335938 -6.5 4.671875 -6.40625 C 5.015625 -6.320312 5.257812 -6.222656 5.40625 -6.109375 C 5.695312 -5.867188 5.84375 -5.484375 5.84375 -4.953125 C 5.84375 -4.421875 5.710938 -4.039062 5.453125 -3.8125 C 5.191406 -3.582031 4.796875 -3.445312 4.265625 -3.40625 L 4.265625 -3.375 C 4.765625 -3.3125 5.113281 -3.164062 5.3125 -2.9375 C 5.507812 -2.707031 5.609375 -2.320312 5.609375 -1.78125 L 5.609375 -1.28125 C 5.609375 -0.957031 5.625 -0.738281 5.65625 -0.625 C 5.695312 -0.507812 5.773438 -0.453125 5.890625 -0.453125 C 6.003906 -0.453125 6.09375 -0.503906 6.15625 -0.609375 C 6.21875 -0.710938 6.273438 -0.929688 6.328125 -1.265625 L 6.5 -1.25 C 6.425781 -0.71875 6.300781 -0.359375 6.125 -0.171875 C 5.957031 0.00390625 5.617188 0.09375 5.109375 0.09375 C 4.597656 0.09375 4.234375 -0.0234375 4.015625 -0.265625 C 3.804688 -0.503906 3.703125 -0.953125 3.703125 -1.609375 L 3.703125 -2.296875 C 3.703125 -2.648438 3.65625 -2.90625 3.5625 -3.0625 C 3.46875 -3.226562 3.300781 -3.3125 3.0625 -3.3125 Z M 2.5625 -6.359375 L 2.5625 -3.484375 L 2.875 -3.484375 C 3.226562 -3.484375 3.488281 -3.59375 3.65625 -3.8125 C 3.832031 -4.03125 3.921875 -4.382812 3.921875 -4.875 L 3.921875 -5.15625 C 3.921875 -5.644531 3.835938 -5.96875 3.671875 -6.125 C 3.503906 -6.28125 3.238281 -6.359375 2.875 -6.359375 Z M 2.5625 -6.359375 "/></g></g></g><g fill="#ffffff" fill-opacity="1"><g transform="translate(118.778185, 12.550781)"><g><path d="M 0.234375 -6.546875 L 3.078125 -6.546875 L 3.078125 -6.359375 L 2.5625 -6.359375 L 2.5625 -0.171875 L 3.078125 -0.171875 L 3.078125 0 L 0.234375 0 L 0.234375 -0.171875 L 0.75 -0.171875 L 0.75 -6.359375 L 0.234375 -6.359375 Z M 0.234375 -6.546875 "/></g></g></g><g fill="#ffffff" fill-opacity="1"><g transform="translate(122.095246, 12.550781)"><g><path d="M 5.9375 -6.546875 L 6.03125 -4.203125 L 5.859375 -4.203125 C 5.585938 -5.023438 5.34375 -5.585938 5.125 -5.890625 C 4.914062 -6.191406 4.613281 -6.34375 4.21875 -6.34375 L 4.109375 -6.34375 L 4.109375 -0.203125 L 4.890625 -0.203125 L 4.890625 0 L 1.484375 0 L 1.484375 -0.203125 L 2.28125 -0.203125 L 2.28125 -6.34375 L 2.15625 -6.34375 C 1.757812 -6.34375 1.453125 -6.1875 1.234375 -5.875 C 1.015625 -5.5625 0.773438 -5.003906 0.515625 -4.203125 L 0.34375 -4.203125 L 0.4375 -6.546875 Z M 5.9375 -6.546875 "/></g></g></g><g fill="#ffffff" fill-opacity="1"><g transform="translate(128.383625, 12.550781)"><g><path d="M 3.703125 -3.46875 L 5.03125 -6.390625 L 4.09375 -6.390625 L 4.09375 -6.546875 L 5.9375 -6.546875 L 5.9375 -6.390625 L 5.3125 -6.390625 L 3.90625 -3.265625 L 3.90625 -0.171875 L 4.46875 -0.171875 L 4.46875 0 L 1.515625 0 L 1.515625 -0.171875 L 2.078125 -0.171875 L 2.078125 -3.09375 L 0.5 -6.390625 L 0.0625 -6.390625 L 0.0625 -6.546875 L 3.046875 -6.546875 L 3.046875 -6.390625 L 2.4375 -6.390625 Z M 3.703125 -3.46875 "/></g></g></g><g fill="#ffffff" fill-opacity="1"><g transform="translate(41.243776, 25.101562)"><g><path d="M 0.203125 -6.546875 L 3.5625 -6.546875 L 3.5625 -6.328125 L 2.5625 -6.328125 L 2.5625 -0.203125 L 2.90625 -0.203125 C 3.4375 -0.203125 3.859375 -0.363281 4.171875 -0.6875 C 4.484375 -1.007812 4.800781 -1.507812 5.125 -2.1875 L 5.328125 -2.1875 L 5.15625 0 L 0.203125 0 L 0.203125 -0.203125 L 0.75 -0.203125 L 0.75 -6.328125 L 0.203125 -6.328125 Z M 0.203125 -6.546875 "/></g></g></g><g fill="#ffffff" fill-opacity="1"><g transform="translate(46.812709, 25.101562)"><g><path d="M 4.03125 -0.171875 L 3.359375 -2.203125 L 1.5 -2.203125 L 0.78125 -0.171875 L 1.484375 -0.171875 L 1.484375 0 L 0.0625 0 L 0.0625 -0.171875 L 0.5 -0.171875 L 2.875 -6.59375 L 3.640625 -6.59375 L 6 -0.171875 L 6.421875 -0.171875 L 6.421875 0 L 3.375 0 L 3.375 -0.171875 Z M 2.46875 -4.84375 L 1.59375 -2.40625 L 3.28125 -2.40625 Z M 2.46875 -4.84375 "/></g></g></g><g fill="#ffffff" fill-opacity="1"><g transform="translate(53.203873, 25.101562)"><g><path d="M 3.03125 -0.109375 C 3.34375 -0.109375 3.617188 -0.191406 3.859375 -0.359375 C 4.097656 -0.523438 4.21875 -0.773438 4.21875 -1.109375 C 4.21875 -1.453125 4.085938 -1.710938 3.828125 -1.890625 C 3.578125 -2.078125 3.210938 -2.234375 2.734375 -2.359375 C 2.253906 -2.492188 1.90625 -2.613281 1.6875 -2.71875 C 1.476562 -2.820312 1.273438 -2.953125 1.078125 -3.109375 C 0.691406 -3.429688 0.5 -3.929688 0.5 -4.609375 C 0.5 -5.171875 0.695312 -5.648438 1.09375 -6.046875 C 1.488281 -6.441406 2.03125 -6.640625 2.71875 -6.640625 C 3.050781 -6.640625 3.394531 -6.59375 3.75 -6.5 C 4.101562 -6.40625 4.320312 -6.359375 4.40625 -6.359375 C 4.5 -6.359375 4.582031 -6.421875 4.65625 -6.546875 L 4.75 -6.546875 L 4.828125 -4.65625 L 4.671875 -4.65625 C 4.367188 -5.195312 4.054688 -5.628906 3.734375 -5.953125 C 3.410156 -6.285156 3.054688 -6.453125 2.671875 -6.453125 C 2.285156 -6.453125 1.984375 -6.363281 1.765625 -6.1875 C 1.554688 -6.007812 1.453125 -5.769531 1.453125 -5.46875 C 1.453125 -5.175781 1.578125 -4.945312 1.828125 -4.78125 C 2.085938 -4.625 2.398438 -4.492188 2.765625 -4.390625 C 3.128906 -4.296875 3.367188 -4.226562 3.484375 -4.1875 C 3.597656 -4.15625 3.738281 -4.101562 3.90625 -4.03125 C 4.082031 -3.96875 4.222656 -3.898438 4.328125 -3.828125 C 4.441406 -3.765625 4.5625 -3.675781 4.6875 -3.5625 C 4.8125 -3.457031 4.90625 -3.335938 4.96875 -3.203125 C 5.132812 -2.898438 5.21875 -2.546875 5.21875 -2.140625 C 5.21875 -1.460938 5.007812 -0.921875 4.59375 -0.515625 C 4.175781 -0.109375 3.625 0.09375 2.9375 0.09375 C 2.582031 0.09375 2.175781 0.046875 1.71875 -0.046875 C 1.257812 -0.140625 1.003906 -0.1875 0.953125 -0.1875 C 0.867188 -0.1875 0.785156 -0.09375 0.703125 0.09375 L 0.5625 0.09375 L 0.46875 -2.125 L 0.640625 -2.125 C 0.910156 -1.582031 1.257812 -1.109375 1.6875 -0.703125 C 2.113281 -0.304688 2.5625 -0.109375 3.03125 -0.109375 Z M 3.03125 -0.109375 "/></g></g></g><g fill="#ffffff" fill-opacity="1"><g transform="translate(58.810184, 25.101562)"><g><path d="M 0.203125 -6.546875 L 5.0625 -6.546875 L 5.15625 -4.6875 L 4.984375 -4.6875 C 4.722656 -5.320312 4.445312 -5.753906 4.15625 -5.984375 C 3.875 -6.210938 3.453125 -6.328125 2.890625 -6.328125 L 2.5625 -6.328125 L 2.5625 -3.453125 L 2.890625 -3.453125 C 3.179688 -3.453125 3.425781 -3.5625 3.625 -3.78125 C 3.820312 -4 3.960938 -4.296875 4.046875 -4.671875 L 4.1875 -4.671875 L 4.1875 -1.90625 L 4.03125 -1.90625 C 3.914062 -2.375 3.757812 -2.707031 3.5625 -2.90625 C 3.375 -3.101562 3.117188 -3.203125 2.796875 -3.203125 L 2.5625 -3.203125 L 2.5625 -0.203125 L 2.921875 -0.203125 C 3.492188 -0.203125 3.976562 -0.375 4.375 -0.71875 C 4.78125 -1.0625 5.0625 -1.5 5.21875 -2.03125 L 5.40625 -2.03125 L 5.328125 0 L 0.203125 0 L 0.203125 -0.203125 L 0.75 -0.203125 L 0.75 -6.328125 L 0.203125 -6.328125 Z M 0.203125 -6.546875 "/></g></g></g><g fill="#ffffff" fill-opacity="1"><g transform="translate(64.640743, 25.101562)"><g><path d="M 3.0625 -3.3125 L 2.5625 -3.3125 L 2.5625 -0.171875 L 3.171875 -0.171875 L 3.171875 0 L 0.140625 0 L 0.140625 -0.171875 L 0.75 -0.171875 L 0.75 -6.359375 L 0.140625 -6.359375 L 0.140625 -6.546875 L 2.96875 -6.546875 C 3.769531 -6.546875 4.335938 -6.5 4.671875 -6.40625 C 5.015625 -6.320312 5.257812 -6.222656 5.40625 -6.109375 C 5.695312 -5.867188 5.84375 -5.484375 5.84375 -4.953125 C 5.84375 -4.421875 5.710938 -4.039062 5.453125 -3.8125 C 5.191406 -3.582031 4.796875 -3.445312 4.265625 -3.40625 L 4.265625 -3.375 C 4.765625 -3.3125 5.113281 -3.164062 5.3125 -2.9375 C 5.507812 -2.707031 5.609375 -2.320312 5.609375 -1.78125 L 5.609375 -1.28125 C 5.609375 -0.957031 5.625 -0.738281 5.65625 -0.625 C 5.695312 -0.507812 5.773438 -0.453125 5.890625 -0.453125 C 6.003906 -0.453125 6.09375 -0.503906 6.15625 -0.609375 C 6.21875 -0.710938 6.273438 -0.929688 6.328125 -1.265625 L 6.5 -1.25 C 6.425781 -0.71875 6.300781 -0.359375 6.125 -0.171875 C 5.957031 0.00390625 5.617188 0.09375 5.109375 0.09375 C 4.597656 0.09375 4.234375 -0.0234375 4.015625 -0.265625 C 3.804688 -0.503906 3.703125 -0.953125 3.703125 -1.609375 L 3.703125 -2.296875 C 3.703125 -2.648438 3.65625 -2.90625 3.5625 -3.0625 C 3.46875 -3.226562 3.300781 -3.3125 3.0625 -3.3125 Z M 2.5625 -6.359375 L 2.5625 -3.484375 L 2.875 -3.484375 C 3.226562 -3.484375 3.488281 -3.59375 3.65625 -3.8125 C 3.832031 -4.03125 3.921875 -4.382812 3.921875 -4.875 L 3.921875 -5.15625 C 3.921875 -5.644531 3.835938 -5.96875 3.671875 -6.125 C 3.503906 -6.28125 3.238281 -6.359375 2.875 -6.359375 Z M 2.5625 -6.359375 "/></g></g></g><g fill="#ffffff" fill-opacity="1"><g transform="translate(71.330932, 25.101562)"><g/></g></g><g fill="#ffffff" fill-opacity="1"><g transform="translate(73.012827, 25.101562)"><g><path d="M 0.203125 -6.546875 L 5.0625 -6.546875 L 5.15625 -4.6875 L 4.984375 -4.6875 C 4.722656 -5.320312 4.445312 -5.753906 4.15625 -5.984375 C 3.875 -6.210938 3.453125 -6.328125 2.890625 -6.328125 L 2.5625 -6.328125 L 2.5625 -3.453125 L 2.890625 -3.453125 C 3.179688 -3.453125 3.425781 -3.5625 3.625 -3.78125 C 3.820312 -4 3.960938 -4.296875 4.046875 -4.671875 L 4.1875 -4.671875 L 4.1875 -1.90625 L 4.03125 -1.90625 C 3.914062 -2.375 3.757812 -2.707031 3.5625 -2.90625 C 3.375 -3.101562 3.117188 -3.203125 2.796875 -3.203125 L 2.5625 -3.203125 L 2.5625 -0.203125 L 2.921875 -0.203125 C 3.492188 -0.203125 3.976562 -0.375 4.375 -0.71875 C 4.78125 -1.0625 5.0625 -1.5 5.21875 -2.03125 L 5.40625 -2.03125 L 5.328125 0 L 0.203125 0 L 0.203125 -0.203125 L 0.75 -0.203125 L 0.75 -6.328125 L 0.203125 -6.328125 Z M 0.203125 -6.546875 "/></g></g></g><g fill="#ffffff" fill-opacity="1"><g transform="translate(78.18912, 25.101562)"><g><path d="M 3.703125 -3.46875 L 5.03125 -6.390625 L 4.09375 -6.390625 L 4.09375 -6.546875 L 5.9375 -6.546875 L 5.9375 -6.390625 L 5.3125 -6.390625 L 3.90625 -3.265625 L 3.90625 -0.171875 L 4.46875 -0.171875 L 4.46875 0 L 1.515625 0 L 1.515625 -0.171875 L 2.078125 -0.171875 L 2.078125 -3.09375 L 0.5 -6.390625 L 0.0625 -6.390625 L 0.0625 -6.546875 L 3.046875 -6.546875 L 3.046875 -6.390625 L 2.4375 -6.390625 Z M 3.703125 -3.46875 "/></g></g></g><g fill="#ffffff" fill-opacity="1"><g transform="translate(84.178519, 25.101562)"><g><path d="M 0.203125 -6.546875 L 5.0625 -6.546875 L 5.15625 -4.6875 L 4.984375 -4.6875 C 4.722656 -5.320312 4.445312 -5.753906 4.15625 -5.984375 C 3.875 -6.210938 3.453125 -6.328125 2.890625 -6.328125 L 2.5625 -6.328125 L 2.5625 -3.453125 L 2.890625 -3.453125 C 3.179688 -3.453125 3.425781 -3.5625 3.625 -3.78125 C 3.820312 -4 3.960938 -4.296875 4.046875 -4.671875 L 4.1875 -4.671875 L 4.1875 -1.90625 L 4.03125 -1.90625 C 3.914062 -2.375 3.757812 -2.707031 3.5625 -2.90625 C 3.375 -3.101562 3.117188 -3.203125 2.796875 -3.203125 L 2.5625 -3.203125 L 2.5625 -0.203125 L 2.921875 -0.203125 C 3.492188 -0.203125 3.976562 -0.375 4.375 -0.71875 C 4.78125 -1.0625 5.0625 -1.5 5.21875 -2.03125 L 5.40625 -2.03125 L 5.328125 0 L 0.203125 0 L 0.203125 -0.203125 L 0.75 -0.203125 L 0.75 -6.328125 L 0.203125 -6.328125 Z M 0.203125 -6.546875 "/></g></g></g><g fill="#ffffff" fill-opacity="1"><g transform="translate(90.016479, 25.101562)"><g/></g></g><g fill="#ffffff" fill-opacity="1"><g transform="translate(91.698373, 25.101562)"><g/></g></g><g fill="#ffffff" fill-opacity="1"><g transform="translate(93.384887, 25.101562)"><g><path d="M 0.203125 -6.546875 L 3.109375 -6.546875 L 3.109375 -6.359375 L 2.5625 -6.359375 L 2.5625 -3.46875 L 4.421875 -3.46875 L 4.421875 -6.359375 L 3.875 -6.359375 L 3.875 -6.546875 L 6.796875 -6.546875 L 6.796875 -6.359375 L 6.25 -6.359375 L 6.25 -0.171875 L 6.796875 -0.171875 L 6.796875 0 L 3.875 0 L 3.875 -0.171875 L 4.421875 -0.171875 L 4.421875 -3.21875 L 2.5625 -3.21875 L 2.5625 -0.171875 L 3.109375 -0.171875 L 3.109375 0 L 0.203125 0 L 0.203125 -0.171875 L 0.75 -0.171875 L 0.75 -6.359375 L 0.203125 -6.359375 Z M 0.203125 -6.546875 "/></g></g></g><g fill="#ffffff" fill-opacity="1"><g transform="translate(100.383429, 25.101562)"><g><path d="M 4.6875 -2.890625 L 4.6875 -3.578125 C 4.6875 -4.710938 4.628906 -5.429688 4.515625 -5.734375 C 4.390625 -6.078125 4.210938 -6.289062 3.984375 -6.375 C 3.847656 -6.425781 3.6875 -6.453125 3.5 -6.453125 C 3.3125 -6.453125 3.148438 -6.425781 3.015625 -6.375 C 2.890625 -6.320312 2.78125 -6.234375 2.6875 -6.109375 C 2.601562 -5.984375 2.535156 -5.851562 2.484375 -5.71875 C 2.429688 -5.582031 2.390625 -5.390625 2.359375 -5.140625 C 2.316406 -4.773438 2.296875 -4.242188 2.296875 -3.546875 L 2.296875 -2.875 C 2.296875 -2.113281 2.320312 -1.570312 2.375 -1.25 C 2.4375 -0.925781 2.515625 -0.695312 2.609375 -0.5625 C 2.796875 -0.257812 3.09375 -0.109375 3.5 -0.109375 C 3.988281 -0.109375 4.304688 -0.3125 4.453125 -0.71875 C 4.609375 -1.132812 4.6875 -1.859375 4.6875 -2.890625 Z M 3.484375 0.09375 C 2.441406 0.09375 1.664062 -0.1875 1.15625 -0.75 C 0.644531 -1.3125 0.390625 -2.125 0.390625 -3.1875 C 0.390625 -4.257812 0.660156 -5.101562 1.203125 -5.71875 C 1.753906 -6.332031 2.535156 -6.640625 3.546875 -6.640625 C 4.554688 -6.640625 5.316406 -6.347656 5.828125 -5.765625 C 6.347656 -5.179688 6.609375 -4.351562 6.609375 -3.28125 C 6.609375 -2.21875 6.347656 -1.390625 5.828125 -0.796875 C 5.304688 -0.203125 4.523438 0.09375 3.484375 0.09375 Z M 3.484375 0.09375 "/></g></g></g><g fill="#ffffff" fill-opacity="1"><g transform="translate(107.279153, 25.101562)"><g><path d="M 3.03125 -0.109375 C 3.34375 -0.109375 3.617188 -0.191406 3.859375 -0.359375 C 4.097656 -0.523438 4.21875 -0.773438 4.21875 -1.109375 C 4.21875 -1.453125 4.085938 -1.710938 3.828125 -1.890625 C 3.578125 -2.078125 3.210938 -2.234375 2.734375 -2.359375 C 2.253906 -2.492188 1.90625 -2.613281 1.6875 -2.71875 C 1.476562 -2.820312 1.273438 -2.953125 1.078125 -3.109375 C 0.691406 -3.429688 0.5 -3.929688 0.5 -4.609375 C 0.5 -5.171875 0.695312 -5.648438 1.09375 -6.046875 C 1.488281 -6.441406 2.03125 -6.640625 2.71875 -6.640625 C 3.050781 -6.640625 3.394531 -6.59375 3.75 -6.5 C 4.101562 -6.40625 4.320312 -6.359375 4.40625 -6.359375 C 4.5 -6.359375 4.582031 -6.421875 4.65625 -6.546875 L 4.75 -6.546875 L 4.828125 -4.65625 L 4.671875 -4.65625 C 4.367188 -5.195312 4.054688 -5.628906 3.734375 -5.953125 C 3.410156 -6.285156 3.054688 -6.453125 2.671875 -6.453125 C 2.285156 -6.453125 1.984375 -6.363281 1.765625 -6.1875 C 1.554688 -6.007812 1.453125 -5.769531 1.453125 -5.46875 C 1.453125 -5.175781 1.578125 -4.945312 1.828125 -4.78125 C 2.085938 -4.625 2.398438 -4.492188 2.765625 -4.390625 C 3.128906 -4.296875 3.367188 -4.226562 3.484375 -4.1875 C 3.597656 -4.15625 3.738281 -4.101562 3.90625 -4.03125 C 4.082031 -3.96875 4.222656 -3.898438 4.328125 -3.828125 C 4.441406 -3.765625 4.5625 -3.675781 4.6875 -3.5625 C 4.8125 -3.457031 4.90625 -3.335938 4.96875 -3.203125 C 5.132812 -2.898438 5.21875 -2.546875 5.21875 -2.140625 C 5.21875 -1.460938 5.007812 -0.921875 4.59375 -0.515625 C 4.175781 -0.109375 3.625 0.09375 2.9375 0.09375 C 2.582031 0.09375 2.175781 0.046875 1.71875 -0.046875 C 1.257812 -0.140625 1.003906 -0.1875 0.953125 -0.1875 C 0.867188 -0.1875 0.785156 -0.09375 0.703125 0.09375 L 0.5625 0.09375 L 0.46875 -2.125 L 0.640625 -2.125 C 0.910156 -1.582031 1.257812 -1.109375 1.6875 -0.703125 C 2.113281 -0.304688 2.5625 -0.109375 3.03125 -0.109375 Z M 3.03125 -0.109375 "/></g></g></g><g fill="#ffffff" fill-opacity="1"><g transform="translate(112.885465, 25.101562)"><g><path d="M 0.140625 -6.546875 L 2.890625 -6.546875 C 3.828125 -6.546875 4.523438 -6.410156 4.984375 -6.140625 C 5.453125 -5.867188 5.6875 -5.382812 5.6875 -4.6875 C 5.6875 -3.90625 5.40625 -3.367188 4.84375 -3.078125 C 4.320312 -2.816406 3.585938 -2.6875 2.640625 -2.6875 L 2.5625 -2.6875 L 2.5625 -0.171875 L 3.734375 -0.171875 L 3.734375 0 L 0.140625 0 L 0.140625 -0.171875 L 0.75 -0.171875 L 0.75 -6.359375 L 0.140625 -6.359375 Z M 2.5625 -6.359375 L 2.5625 -2.859375 L 2.765625 -2.859375 C 3.140625 -2.859375 3.394531 -2.984375 3.53125 -3.234375 C 3.675781 -3.492188 3.75 -3.910156 3.75 -4.484375 L 3.75 -4.9375 C 3.75 -5.46875 3.679688 -5.835938 3.546875 -6.046875 C 3.421875 -6.253906 3.179688 -6.359375 2.828125 -6.359375 Z M 2.5625 -6.359375 "/></g></g></g><g fill="#ffffff" fill-opacity="1"><g transform="translate(118.809457, 25.101562)"><g><path d="M 0.234375 -6.546875 L 3.078125 -6.546875 L 3.078125 -6.359375 L 2.5625 -6.359375 L 2.5625 -0.171875 L 3.078125 -0.171875 L 3.078125 0 L 0.234375 0 L 0.234375 -0.171875 L 0.75 -0.171875 L 0.75 -6.359375 L 0.234375 -6.359375 Z M 0.234375 -6.546875 "/></g></g></g><g fill="#ffffff" fill-opacity="1"><g transform="translate(122.126518, 25.101562)"><g><path d="M 5.9375 -6.546875 L 6.03125 -4.203125 L 5.859375 -4.203125 C 5.585938 -5.023438 5.34375 -5.585938 5.125 -5.890625 C 4.914062 -6.191406 4.613281 -6.34375 4.21875 -6.34375 L 4.109375 -6.34375 L 4.109375 -0.203125 L 4.890625 -0.203125 L 4.890625 0 L 1.484375 0 L 1.484375 -0.203125 L 2.28125 -0.203125 L 2.28125 -6.34375 L 2.15625 -6.34375 C 1.757812 -6.34375 1.453125 -6.1875 1.234375 -5.875 C 1.015625 -5.5625 0.773438 -5.003906 0.515625 -4.203125 L 0.34375 -4.203125 L 0.4375 -6.546875 Z M 5.9375 -6.546875 "/></g></g></g><g fill="#ffffff" fill-opacity="1"><g transform="translate(127.526968, 25.101562)"><g><path d="M 4.03125 -0.171875 L 3.359375 -2.203125 L 1.5 -2.203125 L 0.78125 -0.171875 L 1.484375 -0.171875 L 1.484375 0 L 0.0625 0 L 0.0625 -0.171875 L 0.5 -0.171875 L 2.875 -6.59375 L 3.640625 -6.59375 L 6 -0.171875 L 6.421875 -0.171875 L 6.421875 0 L 3.375 0 L 3.375 -0.171875 Z M 2.46875 -4.84375 L 1.59375 -2.40625 L 3.28125 -2.40625 Z M 2.46875 -4.84375 "/></g></g></g><g fill="#ffffff" fill-opacity="1"><g transform="translate(134.0116, 25.101562)"><g><path d="M 0.203125 -6.546875 L 3.5625 -6.546875 L 3.5625 -6.328125 L 2.5625 -6.328125 L 2.5625 -0.203125 L 2.90625 -0.203125 C 3.4375 -0.203125 3.859375 -0.363281 4.171875 -0.6875 C 4.484375 -1.007812 4.800781 -1.507812 5.125 -2.1875 L 5.328125 -2.1875 L 5.15625 0 L 0.203125 0 L 0.203125 -0.203125 L 0.75 -0.203125 L 0.75 -6.328125 L 0.203125 -6.328125 Z M 0.203125 -6.546875 "/></g></g></g><g transform="matrix(1, 0, 0, 1, 2, 18)"><g clip-path="url(#e748b3bffe)"><g fill="#1892ce" fill-opacity="1"><g transform="translate(1.329886, 4.188344)"><g><path d="M 1.40625 -0.921875 L 1.125 -1.125 L 1.359375 -1.453125 L 1.640625 -1.25 L 2.15625 -1.90625 C 2.332031 -2.132812 2.515625 -2.265625 2.703125 -2.296875 C 2.898438 -2.335938 3.097656 -2.285156 3.296875 -2.140625 C 3.347656 -2.097656 3.398438 -2.039062 3.453125 -1.96875 C 3.503906 -1.90625 3.546875 -1.84375 3.578125 -1.78125 L 3.21875 -1.640625 C 3.207031 -1.710938 3.171875 -1.773438 3.109375 -1.828125 C 3.015625 -1.898438 2.921875 -1.921875 2.828125 -1.890625 C 2.734375 -1.859375 2.628906 -1.769531 2.515625 -1.625 L 2 -0.96875 L 2.484375 -0.59375 L 2.25 -0.265625 L 1.765625 -0.640625 L 0.796875 0.609375 L 0.4375 0.328125 Z M 1.40625 -0.921875 "/></g></g></g><g fill="#1892ce" fill-opacity="1"><g transform="translate(3.048897, 5.519424)"><g><path d="M 3.109375 -0.421875 L 2.0625 1.265625 L 1.671875 1.03125 L 1.84375 0.75 C 1.738281 0.800781 1.609375 0.820312 1.453125 0.8125 C 1.296875 0.8125 1.144531 0.769531 1 0.6875 C 0.84375 0.59375 0.722656 0.46875 0.640625 0.3125 C 0.554688 0.15625 0.519531 -0.0078125 0.53125 -0.1875 C 0.539062 -0.375 0.597656 -0.554688 0.703125 -0.734375 C 0.816406 -0.910156 0.953125 -1.046875 1.109375 -1.140625 C 1.265625 -1.234375 1.429688 -1.273438 1.609375 -1.265625 C 1.796875 -1.253906 1.96875 -1.195312 2.125 -1.09375 C 2.269531 -1.007812 2.375 -0.898438 2.4375 -0.765625 C 2.507812 -0.640625 2.546875 -0.507812 2.546875 -0.375 L 2.765625 -0.625 Z M 1.296875 0.421875 C 1.441406 0.503906 1.585938 0.539062 1.734375 0.53125 C 1.878906 0.519531 2.003906 0.453125 2.109375 0.328125 L 2.3125 0 C 2.363281 -0.125 2.359375 -0.257812 2.296875 -0.40625 C 2.234375 -0.550781 2.132812 -0.664062 2 -0.75 C 1.90625 -0.8125 1.800781 -0.84375 1.6875 -0.84375 C 1.570312 -0.851562 1.460938 -0.820312 1.359375 -0.75 C 1.253906 -0.6875 1.171875 -0.601562 1.109375 -0.5 C 1.046875 -0.394531 1.007812 -0.28125 1 -0.15625 C 0.988281 -0.0390625 1.007812 0.0664062 1.0625 0.171875 C 1.125 0.273438 1.203125 0.359375 1.296875 0.421875 Z M 1.296875 0.421875 "/></g></g></g><g fill="#1892ce" fill-opacity="1"><g transform="translate(5.779221, 7.22033)"><g><path d="M 3.5 -0.734375 C 3.675781 -0.648438 3.789062 -0.535156 3.84375 -0.390625 C 3.90625 -0.253906 3.90625 -0.0976562 3.84375 0.078125 L 3.265625 1.421875 L 2.875 1.25 L 3.390625 0.046875 C 3.472656 -0.171875 3.421875 -0.328125 3.234375 -0.421875 C 3.128906 -0.460938 3.019531 -0.46875 2.90625 -0.4375 C 2.800781 -0.414062 2.703125 -0.363281 2.609375 -0.28125 C 2.515625 -0.207031 2.441406 -0.109375 2.390625 0.015625 L 2.015625 0.875 L 1.609375 0.703125 L 2.125 -0.5 C 2.207031 -0.71875 2.15625 -0.875 1.96875 -0.96875 C 1.863281 -1.007812 1.753906 -1.015625 1.640625 -0.984375 C 1.535156 -0.960938 1.4375 -0.910156 1.34375 -0.828125 C 1.257812 -0.742188 1.191406 -0.644531 1.140625 -0.53125 L 0.765625 0.328125 L 0.359375 0.15625 L 1.15625 -1.671875 L 1.515625 -1.515625 L 1.40625 -1.15625 C 1.53125 -1.25 1.664062 -1.304688 1.8125 -1.328125 C 1.957031 -1.347656 2.113281 -1.320312 2.28125 -1.25 C 2.414062 -1.1875 2.519531 -1.097656 2.59375 -0.984375 C 2.675781 -0.878906 2.703125 -0.757812 2.671875 -0.625 C 2.804688 -0.71875 2.941406 -0.769531 3.078125 -0.78125 C 3.222656 -0.800781 3.363281 -0.785156 3.5 -0.734375 Z M 3.5 -0.734375 "/></g></g></g><g fill="#1892ce" fill-opacity="1"><g transform="translate(9.77272, 8.845169)"><g><path d="M 1.375 -1.65625 L 0.796875 0.234375 L 0.375 0.109375 L 0.953125 -1.78125 Z M 1.125 -2.46875 C 1.144531 -2.53125 1.1875 -2.578125 1.25 -2.609375 C 1.320312 -2.648438 1.390625 -2.660156 1.453125 -2.640625 C 1.523438 -2.617188 1.578125 -2.570312 1.609375 -2.5 C 1.648438 -2.4375 1.660156 -2.375 1.640625 -2.3125 C 1.617188 -2.25 1.578125 -2.203125 1.515625 -2.171875 C 1.453125 -2.140625 1.382812 -2.132812 1.3125 -2.15625 C 1.25 -2.175781 1.195312 -2.21875 1.15625 -2.28125 C 1.113281 -2.34375 1.101562 -2.40625 1.125 -2.46875 Z M 1.125 -2.46875 "/></g></g></g><g fill="#1892ce" fill-opacity="1"><g transform="translate(11.23363, 9.281588)"><g><path d="M 1.6875 -3.40625 L 0.8125 0.1875 L 0.375 0.09375 L 1.25 -3.5 Z M 1.6875 -3.40625 "/></g></g></g><g fill="#1892ce" fill-opacity="1"><g transform="translate(12.739318, 9.656343)"><g><path d="M 2.546875 -1.59375 L 0.828125 1.09375 L 0.390625 1.015625 L 1.015625 0.09375 L 0.40625 -1.9375 L 0.90625 -1.859375 L 1.3125 -0.375 L 2.15625 -1.65625 Z M 2.546875 -1.59375 "/></g></g></g><g fill="#1892ce" fill-opacity="1"><g transform="translate(15.411514, 10.044787)"><g/></g></g><g fill="#1892ce" fill-opacity="1"><g transform="translate(17.259653, 10.180196)"><g><path d="M 1.3125 -0.359375 C 1.476562 -0.359375 1.632812 -0.414062 1.78125 -0.53125 L 2 -0.21875 C 1.894531 -0.144531 1.78125 -0.0859375 1.65625 -0.046875 C 1.539062 -0.00390625 1.425781 0.015625 1.3125 0.015625 C 1.082031 0.0234375 0.882812 -0.0078125 0.71875 -0.09375 C 0.5625 -0.1875 0.4375 -0.3125 0.34375 -0.46875 C 0.25 -0.625 0.203125 -0.800781 0.203125 -1 C 0.191406 -1.195312 0.234375 -1.378906 0.328125 -1.546875 C 0.421875 -1.710938 0.550781 -1.84375 0.71875 -1.9375 C 0.882812 -2.03125 1.066406 -2.082031 1.265625 -2.09375 C 1.523438 -2.09375 1.742188 -2.019531 1.921875 -1.875 C 2.097656 -1.726562 2.21875 -1.519531 2.28125 -1.25 L 0.734375 -0.671875 C 0.796875 -0.566406 0.875 -0.484375 0.96875 -0.421875 C 1.070312 -0.367188 1.1875 -0.347656 1.3125 -0.359375 Z M 1.25 -1.734375 C 1.070312 -1.722656 0.921875 -1.65625 0.796875 -1.53125 C 0.679688 -1.40625 0.628906 -1.242188 0.640625 -1.046875 C 0.640625 -0.992188 0.640625 -0.957031 0.640625 -0.9375 L 1.78125 -1.375 C 1.726562 -1.476562 1.660156 -1.5625 1.578125 -1.625 C 1.492188 -1.695312 1.382812 -1.734375 1.25 -1.734375 Z M 1.25 -1.734375 "/></g></g></g><g clip-path="url(#bd11fdb9b2)"><g fill="#1892ce" fill-opacity="1"><g transform="translate(20.106376, 10.100978)"><g><path d="M 2 -2.25 L 1.109375 0.828125 L 0.671875 0.890625 L 0.984375 -0.1875 L -0.15625 -1.984375 L 0.34375 -2.046875 L 1.140625 -0.71875 L 1.59375 -2.203125 Z M 2 -2.25 "/></g></g></g></g><g fill="#1892ce" fill-opacity="1"><g transform="translate(22.806316, 9.741725)"><g><path d="M 1.203125 -0.609375 C 1.359375 -0.648438 1.503906 -0.75 1.640625 -0.90625 L 1.90625 -0.640625 C 1.820312 -0.546875 1.722656 -0.460938 1.609375 -0.390625 C 1.503906 -0.328125 1.398438 -0.28125 1.296875 -0.25 C 1.066406 -0.195312 0.863281 -0.195312 0.6875 -0.25 C 0.507812 -0.300781 0.359375 -0.394531 0.234375 -0.53125 C 0.117188 -0.664062 0.0351562 -0.828125 -0.015625 -1.015625 C -0.0546875 -1.210938 -0.0507812 -1.398438 0 -1.578125 C 0.0507812 -1.753906 0.148438 -1.90625 0.296875 -2.03125 C 0.441406 -2.164062 0.613281 -2.253906 0.8125 -2.296875 C 1.0625 -2.359375 1.285156 -2.335938 1.484375 -2.234375 C 1.679688 -2.128906 1.84375 -1.953125 1.96875 -1.703125 L 0.578125 -0.8125 C 0.671875 -0.71875 0.765625 -0.65625 0.859375 -0.625 C 0.960938 -0.59375 1.078125 -0.585938 1.203125 -0.609375 Z M 0.859375 -1.953125 C 0.679688 -1.910156 0.546875 -1.816406 0.453125 -1.671875 C 0.367188 -1.523438 0.351562 -1.351562 0.40625 -1.15625 C 0.414062 -1.101562 0.421875 -1.066406 0.421875 -1.046875 L 1.453125 -1.734375 C 1.378906 -1.816406 1.289062 -1.878906 1.1875 -1.921875 C 1.09375 -1.972656 0.984375 -1.984375 0.859375 -1.953125 Z M 0.859375 -1.953125 "/></g></g></g><g fill="#1892ce" fill-opacity="1"><g transform="translate(25.566727, 9.059891)"><g><path d="M 1.828125 -0.828125 C 1.753906 -0.734375 1.664062 -0.644531 1.5625 -0.5625 C 1.46875 -0.476562 1.359375 -0.414062 1.234375 -0.375 C 1.035156 -0.3125 0.84375 -0.289062 0.65625 -0.3125 C 0.476562 -0.332031 0.316406 -0.40625 0.171875 -0.53125 C 0.0351562 -0.664062 -0.0625 -0.828125 -0.125 -1.015625 C -0.1875 -1.203125 -0.203125 -1.390625 -0.171875 -1.578125 C -0.140625 -1.765625 -0.0625 -1.921875 0.0625 -2.046875 C 0.1875 -2.179688 0.335938 -2.273438 0.515625 -2.328125 C 0.804688 -2.429688 1.070312 -2.441406 1.3125 -2.359375 L 1.203125 -2 C 1.117188 -2.019531 1.03125 -2.03125 0.9375 -2.03125 C 0.851562 -2.03125 0.765625 -2.015625 0.671875 -1.984375 C 0.566406 -1.953125 0.476562 -1.890625 0.40625 -1.796875 C 0.332031 -1.710938 0.285156 -1.613281 0.265625 -1.5 C 0.242188 -1.394531 0.253906 -1.28125 0.296875 -1.15625 C 0.335938 -1.039062 0.398438 -0.941406 0.484375 -0.859375 C 0.578125 -0.785156 0.679688 -0.738281 0.796875 -0.71875 C 0.910156 -0.695312 1.03125 -0.707031 1.15625 -0.75 C 1.300781 -0.800781 1.421875 -0.890625 1.515625 -1.015625 Z M 1.828125 -0.828125 "/></g></g></g><g fill="#1892ce" fill-opacity="1"><g transform="translate(27.969263, 8.217327)"><g><path d="M 1.328125 -2.84375 L 2.1875 -1.046875 L 1.78125 -0.84375 L 1.640625 -1.140625 C 1.617188 -1.035156 1.5625 -0.914062 1.46875 -0.78125 C 1.382812 -0.644531 1.265625 -0.546875 1.109375 -0.484375 C 0.941406 -0.398438 0.769531 -0.363281 0.59375 -0.375 C 0.425781 -0.382812 0.269531 -0.441406 0.125 -0.546875 C -0.0195312 -0.648438 -0.132812 -0.796875 -0.21875 -0.984375 C -0.3125 -1.179688 -0.351562 -1.367188 -0.34375 -1.546875 C -0.34375 -1.734375 -0.289062 -1.898438 -0.1875 -2.046875 C -0.0820312 -2.191406 0.0507812 -2.304688 0.21875 -2.390625 C 0.375 -2.460938 0.519531 -2.488281 0.65625 -2.46875 C 0.800781 -2.457031 0.9375 -2.414062 1.0625 -2.34375 L 0.953125 -2.671875 Z M 1.0625 -0.875 C 1.207031 -0.945312 1.3125 -1.046875 1.375 -1.171875 C 1.445312 -1.296875 1.460938 -1.4375 1.421875 -1.59375 L 1.25 -1.9375 C 1.164062 -2.050781 1.046875 -2.117188 0.890625 -2.140625 C 0.734375 -2.171875 0.585938 -2.148438 0.453125 -2.078125 C 0.347656 -2.023438 0.265625 -1.953125 0.203125 -1.859375 C 0.140625 -1.773438 0.101562 -1.671875 0.09375 -1.546875 C 0.09375 -1.429688 0.117188 -1.320312 0.171875 -1.21875 C 0.222656 -1.101562 0.296875 -1.003906 0.390625 -0.921875 C 0.492188 -0.847656 0.601562 -0.804688 0.71875 -0.796875 C 0.84375 -0.796875 0.957031 -0.820312 1.0625 -0.875 Z M 1.0625 -0.875 "/></g></g></g><g fill="#1892ce" fill-opacity="1"><g transform="translate(30.803676, 6.816334)"><g><path d="M -0.09375 -1.71875 C -0.101562 -1.832031 -0.0859375 -1.945312 -0.046875 -2.0625 C -0.015625 -2.1875 0.03125 -2.296875 0.09375 -2.390625 C 0.15625 -2.484375 0.222656 -2.554688 0.296875 -2.609375 L 0.515625 -2.203125 C 0.390625 -2.140625 0.289062 -2.050781 0.21875 -1.9375 C 0.15625 -1.820312 0.125 -1.695312 0.125 -1.5625 C 0.132812 -1.4375 0.171875 -1.320312 0.234375 -1.21875 L 0.703125 -0.4375 L 0.328125 -0.203125 L -0.703125 -1.890625 L -0.359375 -2.09375 Z M -0.09375 -1.71875 "/></g></g></g><g fill="#1892ce" fill-opacity="1"><g transform="translate(32.6373, 5.700586)"><g><path d="M 0.84375 -1.046875 C 0.976562 -1.148438 1.078125 -1.296875 1.140625 -1.484375 L 1.484375 -1.34375 C 1.441406 -1.226562 1.382812 -1.117188 1.3125 -1.015625 C 1.25 -0.910156 1.171875 -0.820312 1.078125 -0.75 C 0.898438 -0.613281 0.71875 -0.53125 0.53125 -0.5 C 0.351562 -0.476562 0.175781 -0.503906 0 -0.578125 C -0.164062 -0.648438 -0.304688 -0.765625 -0.421875 -0.921875 C -0.546875 -1.078125 -0.613281 -1.25 -0.625 -1.4375 C -0.644531 -1.625 -0.613281 -1.804688 -0.53125 -1.984375 C -0.457031 -2.171875 -0.34375 -2.320312 -0.1875 -2.4375 C 0.0195312 -2.59375 0.238281 -2.660156 0.46875 -2.640625 C 0.695312 -2.617188 0.921875 -2.523438 1.140625 -2.359375 L 0.203125 -0.984375 C 0.316406 -0.929688 0.425781 -0.910156 0.53125 -0.921875 C 0.644531 -0.929688 0.75 -0.972656 0.84375 -1.046875 Z M 0.015625 -2.125 C -0.128906 -2.019531 -0.210938 -1.878906 -0.234375 -1.703125 C -0.253906 -1.535156 -0.207031 -1.375 -0.09375 -1.21875 C -0.0625 -1.175781 -0.0351562 -1.144531 -0.015625 -1.125 L 0.640625 -2.15625 C 0.535156 -2.207031 0.429688 -2.234375 0.328125 -2.234375 C 0.222656 -2.242188 0.117188 -2.207031 0.015625 -2.125 Z M 0.015625 -2.125 "/></g></g></g></g></g><g clip-path="url(#9994a56d9c)"><g clip-path="url(#c0d84f11c0)"><g clip-path="url(#39d8cc0154)"><path fill="#51ade5" d="M 25.710938 14.96875 C 25.316406 18.042969 22.507812 20.214844 19.433594 19.820312 C 16.363281 19.425781 14.191406 16.617188 14.582031 13.546875 C 14.976562 10.472656 17.785156 8.300781 20.859375 8.695312 C 23.929688 9.085938 26.101562 11.894531 25.710938 14.96875 " fill-opacity="1" fill-rule="nonzero"/></g></g></g><g clip-path="url(#7c1eda5a63)"><g clip-path="url(#63318aabea)"><g clip-path="url(#a1509949fc)"><path fill="#51ade5" d="M 23.828125 14.726562 C 23.566406 16.761719 21.707031 18.199219 19.675781 17.9375 C 17.640625 17.679688 16.207031 15.820312 16.464844 13.785156 C 16.726562 11.753906 18.585938 10.316406 20.617188 10.574219 C 22.652344 10.835938 24.089844 12.695312 23.828125 14.726562 " fill-opacity="1" fill-rule="nonzero"/></g></g></g><g clip-path="url(#0176543354)"><g clip-path="url(#f2d8592dba)"><g clip-path="url(#438399e496)"><path fill="#ffffff" d="M 21.835938 14.472656 C 21.71875 15.40625 20.863281 16.066406 19.929688 15.949219 C 18.996094 15.828125 18.335938 14.976562 18.457031 14.039062 C 18.574219 13.105469 19.429688 12.445312 20.363281 12.566406 C 21.296875 12.6875 21.957031 13.539062 21.835938 14.472656 " fill-opacity="1" fill-rule="nonzero"/></g></g></g><g clip-path="url(#060e1a6180)"><g clip-path="url(#5ddfad973e)"><g clip-path="url(#481c733791)"><path fill="#ffffff" d="M 17.710938 16.605469 C 17.675781 16.894531 17.414062 17.09375 17.128906 17.058594 C 16.839844 17.023438 16.640625 16.761719 16.675781 16.472656 C 16.710938 16.1875 16.972656 15.984375 17.261719 16.023438 C 17.546875 16.058594 17.75 16.320312 17.710938 16.605469 " fill-opacity="1" fill-rule="nonzero"/></g></g></g><g clip-path="url(#34acf7c510)"><g clip-path="url(#9f0adb4bb2)"><g clip-path="url(#39e54dfcb1)"><g clip-path="url(#b6bd901000)"><path fill="#51ade5" d="M 25.097656 20.417969 C 25.097656 20.417969 25.246094 20.355469 25.527344 20.238281 C 25.808594 20.117188 26.21875 19.933594 26.726562 19.667969 C 26.792969 19.636719 26.855469 19.601562 26.925781 19.566406 C 26.992188 19.53125 27.058594 19.492188 27.128906 19.453125 C 27.195312 19.414062 27.269531 19.378906 27.339844 19.335938 C 27.410156 19.292969 27.484375 19.25 27.558594 19.207031 C 27.636719 19.164062 27.710938 19.117188 27.789062 19.066406 C 27.863281 19.019531 27.941406 18.972656 28.023438 18.921875 C 28.179688 18.816406 28.34375 18.714844 28.507812 18.597656 C 28.675781 18.484375 28.839844 18.359375 29.015625 18.234375 C 29.101562 18.171875 29.1875 18.105469 29.273438 18.039062 C 29.363281 17.96875 29.449219 17.898438 29.535156 17.828125 C 29.890625 17.542969 30.25 17.230469 30.609375 16.882812 C 31.332031 16.195312 32.054688 15.375 32.714844 14.429688 C 32.757812 14.371094 32.800781 14.3125 32.839844 14.25 C 32.878906 14.191406 32.921875 14.128906 32.960938 14.070312 C 32.980469 14.039062 33 14.007812 33.023438 13.976562 C 33.042969 13.949219 33.0625 13.917969 33.082031 13.886719 C 33.121094 13.824219 33.160156 13.761719 33.199219 13.699219 C 33.238281 13.636719 33.277344 13.570312 33.316406 13.507812 C 33.355469 13.441406 33.390625 13.378906 33.429688 13.3125 C 33.46875 13.25 33.503906 13.183594 33.542969 13.117188 C 33.5625 13.082031 33.578125 13.050781 33.597656 13.015625 L 33.613281 12.992188 C 33.617188 12.984375 33.621094 12.976562 33.621094 12.976562 L 33.625 12.960938 C 33.652344 12.890625 33.667969 12.828125 33.679688 12.773438 L 33.683594 12.753906 L 33.683594 12.75 C 33.683594 12.75 33.683594 12.746094 33.679688 12.746094 L 33.667969 12.742188 C 33.652344 12.734375 33.632812 12.730469 33.617188 12.722656 C 33.597656 12.71875 33.582031 12.710938 33.566406 12.707031 C 33.5625 12.703125 33.550781 12.699219 33.539062 12.695312 L 33.507812 12.683594 C 33.488281 12.675781 33.46875 12.667969 33.449219 12.660156 L 33.421875 12.648438 C 33.417969 12.648438 33.417969 12.648438 33.414062 12.644531 L 33.382812 12.632812 L 33.328125 12.601562 C 33.175781 12.519531 33.023438 12.433594 32.871094 12.351562 C 32.566406 12.1875 32.257812 12.019531 31.945312 11.851562 C 31.320312 11.519531 30.683594 11.183594 30.035156 10.851562 C 28.734375 10.183594 27.378906 9.539062 25.972656 8.960938 C 24.566406 8.382812 23.167969 7.910156 21.792969 7.5625 C 21.109375 7.394531 20.429688 7.253906 19.757812 7.148438 C 19.089844 7.042969 18.429688 6.964844 17.785156 6.929688 C 17.140625 6.894531 16.511719 6.890625 15.898438 6.921875 C 15.746094 6.921875 15.59375 6.9375 15.445312 6.949219 C 15.292969 6.960938 15.144531 6.972656 14.996094 6.984375 C 14.847656 7.003906 14.699219 7.023438 14.554688 7.039062 C 14.410156 7.058594 14.261719 7.074219 14.121094 7.101562 C 12.976562 7.277344 11.917969 7.558594 10.972656 7.886719 C 10.027344 8.214844 9.195312 8.59375 8.476562 8.960938 C 8.300781 9.058594 8.128906 9.152344 7.964844 9.242188 C 7.921875 9.265625 7.882812 9.289062 7.839844 9.3125 C 7.800781 9.332031 7.761719 9.359375 7.722656 9.382812 C 7.648438 9.429688 7.570312 9.472656 7.496094 9.519531 C 7.421875 9.5625 7.347656 9.609375 7.277344 9.652344 C 7.242188 9.671875 7.207031 9.695312 7.171875 9.714844 C 7.136719 9.734375 7.105469 9.757812 7.070312 9.78125 C 6.9375 9.871094 6.8125 9.953125 6.691406 10.03125 C 6.632812 10.070312 6.574219 10.109375 6.515625 10.148438 C 6.460938 10.1875 6.410156 10.226562 6.359375 10.265625 C 6.253906 10.339844 6.15625 10.410156 6.066406 10.472656 C 6.023438 10.507812 5.980469 10.539062 5.9375 10.570312 C 5.917969 10.582031 5.894531 10.597656 5.875 10.613281 C 5.855469 10.628906 5.839844 10.644531 5.820312 10.65625 C 5.746094 10.714844 5.679688 10.769531 5.621094 10.816406 C 5.378906 11.003906 5.253906 11.105469 5.253906 11.105469 C 5.253906 11.105469 5.351562 10.980469 5.546875 10.742188 C 5.59375 10.683594 5.648438 10.613281 5.710938 10.542969 C 5.726562 10.523438 5.738281 10.503906 5.757812 10.484375 C 5.773438 10.46875 5.789062 10.449219 5.808594 10.429688 C 5.839844 10.390625 5.878906 10.351562 5.914062 10.308594 C 5.992188 10.226562 6.074219 10.136719 6.160156 10.039062 C 6.203125 9.992188 6.25 9.941406 6.296875 9.890625 C 6.347656 9.839844 6.398438 9.792969 6.449219 9.738281 C 6.554688 9.636719 6.664062 9.527344 6.78125 9.410156 C 6.808594 9.382812 6.839844 9.351562 6.871094 9.324219 C 6.898438 9.296875 6.933594 9.269531 6.964844 9.242188 C 7.027344 9.183594 7.09375 9.125 7.160156 9.066406 C 7.226562 9.003906 7.296875 8.945312 7.367188 8.882812 C 7.402344 8.851562 7.4375 8.816406 7.472656 8.789062 C 7.507812 8.757812 7.546875 8.726562 7.585938 8.695312 C 7.738281 8.574219 7.894531 8.445312 8.058594 8.3125 C 8.730469 7.804688 9.535156 7.265625 10.488281 6.769531 C 11.4375 6.273438 12.535156 5.816406 13.765625 5.472656 C 13.917969 5.425781 14.078125 5.390625 14.234375 5.351562 C 14.394531 5.3125 14.554688 5.273438 14.714844 5.238281 C 14.875 5.207031 15.039062 5.175781 15.207031 5.144531 C 15.371094 5.113281 15.539062 5.078125 15.707031 5.058594 C 16.386719 4.953125 17.089844 4.894531 17.8125 4.875 C 18.539062 4.851562 19.277344 4.882812 20.03125 4.949219 C 20.78125 5.019531 21.542969 5.132812 22.308594 5.289062 C 23.839844 5.601562 25.382812 6.085938 26.898438 6.703125 C 28.410156 7.324219 29.824219 8.046875 31.140625 8.796875 C 31.800781 9.171875 32.4375 9.554688 33.054688 9.9375 C 33.359375 10.128906 33.664062 10.320312 33.960938 10.511719 C 34.109375 10.609375 34.257812 10.703125 34.402344 10.796875 L 34.457031 10.832031 L 34.53125 10.878906 C 34.597656 10.921875 34.660156 10.960938 34.726562 11.003906 C 34.851562 11.082031 34.980469 11.164062 35.105469 11.246094 C 35.167969 11.285156 35.234375 11.324219 35.296875 11.363281 C 35.359375 11.402344 35.421875 11.441406 35.484375 11.484375 C 35.609375 11.570312 35.734375 11.652344 35.855469 11.734375 C 35.980469 11.816406 36.101562 11.898438 36.222656 11.980469 L 36.316406 12.042969 L 36.328125 12.046875 C 36.332031 12.050781 36.324219 12.054688 36.324219 12.058594 L 36.308594 12.085938 L 36.28125 12.136719 C 36.242188 12.203125 36.207031 12.269531 36.167969 12.335938 C 36.09375 12.464844 36.019531 12.597656 35.945312 12.726562 C 35.871094 12.855469 35.800781 12.984375 35.726562 13.113281 C 35.691406 13.175781 35.652344 13.238281 35.617188 13.300781 C 35.582031 13.363281 35.539062 13.425781 35.503906 13.488281 C 35.425781 13.609375 35.351562 13.730469 35.273438 13.851562 L 35.21875 13.945312 C 35.207031 13.960938 35.199219 13.96875 35.195312 13.976562 L 35.175781 14.003906 C 35.148438 14.039062 35.125 14.074219 35.101562 14.109375 C 35.050781 14.179688 35 14.246094 34.953125 14.316406 C 34.902344 14.382812 34.851562 14.453125 34.800781 14.519531 C 34.75 14.585938 34.699219 14.652344 34.648438 14.71875 C 34.597656 14.78125 34.542969 14.847656 34.492188 14.910156 C 34.46875 14.945312 34.441406 14.976562 34.414062 15.007812 C 34.390625 15.039062 34.363281 15.070312 34.335938 15.101562 C 34.285156 15.164062 34.230469 15.226562 34.179688 15.289062 C 34.128906 15.347656 34.070312 15.410156 34.019531 15.46875 C 33.164062 16.425781 32.261719 17.203125 31.382812 17.824219 C 30.945312 18.136719 30.511719 18.410156 30.09375 18.648438 C 29.988281 18.707031 29.886719 18.765625 29.78125 18.820312 C 29.679688 18.875 29.578125 18.929688 29.476562 18.984375 C 29.277344 19.085938 29.082031 19.183594 28.886719 19.269531 C 28.695312 19.359375 28.507812 19.4375 28.328125 19.511719 C 28.238281 19.550781 28.148438 19.585938 28.058594 19.617188 C 27.972656 19.652344 27.886719 19.6875 27.800781 19.714844 C 27.71875 19.746094 27.636719 19.777344 27.554688 19.804688 C 27.472656 19.835938 27.394531 19.859375 27.316406 19.886719 C 27.238281 19.910156 27.164062 19.9375 27.085938 19.957031 C 27.011719 19.980469 26.941406 20.003906 26.871094 20.023438 C 26.304688 20.1875 25.859375 20.28125 25.558594 20.339844 C 25.40625 20.367188 25.292969 20.382812 25.214844 20.398438 C 25.136719 20.410156 25.097656 20.417969 25.097656 20.417969 " fill-opacity="1" fill-rule="nonzero"/></g></g></g></g><g clip-path="url(#1185954e32)"><g clip-path="url(#05a80d522b)"><g clip-path="url(#16c887b2d0)"><g clip-path="url(#d5ba8a314d)"><path fill="#51ade5" d="M 15.195312 8.097656 C 15.195312 8.097656 15.046875 8.160156 14.765625 8.277344 C 14.484375 8.398438 14.074219 8.578125 13.566406 8.84375 C 13.5 8.878906 13.4375 8.914062 13.371094 8.949219 C 13.300781 8.984375 13.234375 9.023438 13.164062 9.058594 C 13.097656 9.097656 13.023438 9.136719 12.953125 9.179688 C 12.882812 9.222656 12.808594 9.265625 12.734375 9.308594 C 12.65625 9.351562 12.582031 9.398438 12.503906 9.445312 C 12.429688 9.496094 12.351562 9.542969 12.269531 9.59375 C 12.113281 9.695312 11.949219 9.800781 11.785156 9.917969 C 11.617188 10.027344 11.453125 10.152344 11.277344 10.28125 C 11.195312 10.34375 11.105469 10.410156 11.019531 10.476562 C 10.933594 10.542969 10.84375 10.617188 10.757812 10.6875 C 10.40625 10.972656 10.042969 11.285156 9.683594 11.628906 C 8.964844 12.320312 8.238281 13.136719 7.578125 14.085938 C 7.535156 14.144531 7.492188 14.203125 7.453125 14.261719 C 7.414062 14.324219 7.375 14.382812 7.332031 14.445312 C 7.3125 14.476562 7.292969 14.503906 7.269531 14.535156 C 7.25 14.566406 7.230469 14.597656 7.210938 14.628906 C 7.171875 14.691406 7.132812 14.753906 7.09375 14.816406 C 7.054688 14.878906 7.015625 14.945312 6.976562 15.007812 C 6.9375 15.070312 6.902344 15.136719 6.863281 15.199219 C 6.824219 15.265625 6.789062 15.332031 6.75 15.398438 C 6.730469 15.429688 6.714844 15.464844 6.695312 15.496094 L 6.679688 15.523438 C 6.675781 15.527344 6.671875 15.539062 6.671875 15.539062 L 6.667969 15.550781 C 6.640625 15.625 6.625 15.6875 6.613281 15.738281 L 6.609375 15.757812 L 6.609375 15.765625 C 6.609375 15.765625 6.609375 15.769531 6.613281 15.769531 L 6.625 15.773438 C 6.644531 15.78125 6.660156 15.785156 6.679688 15.792969 C 6.695312 15.796875 6.710938 15.800781 6.726562 15.808594 C 6.734375 15.808594 6.746094 15.816406 6.753906 15.820312 L 6.785156 15.832031 C 6.804688 15.839844 6.824219 15.847656 6.84375 15.855469 L 6.871094 15.863281 C 6.875 15.867188 6.875 15.867188 6.882812 15.867188 L 6.964844 15.914062 C 7.117188 15.996094 7.269531 16.078125 7.421875 16.160156 C 7.726562 16.328125 8.035156 16.492188 8.347656 16.660156 C 8.972656 16.996094 9.609375 17.332031 10.261719 17.664062 C 11.558594 18.332031 12.914062 18.976562 14.320312 19.554688 C 15.726562 20.128906 17.125 20.605469 18.5 20.949219 C 19.1875 21.121094 19.867188 21.261719 20.535156 21.367188 C 21.203125 21.472656 21.863281 21.550781 22.507812 21.585938 C 23.152344 21.621094 23.78125 21.625 24.394531 21.59375 C 24.546875 21.59375 24.699219 21.574219 24.847656 21.566406 C 25 21.550781 25.148438 21.539062 25.296875 21.527344 C 25.445312 21.511719 25.59375 21.492188 25.738281 21.472656 C 25.882812 21.453125 26.03125 21.441406 26.171875 21.414062 C 27.316406 21.234375 28.375 20.957031 29.320312 20.628906 C 30.265625 20.300781 31.101562 19.921875 31.816406 19.550781 C 31.992188 19.453125 32.164062 19.359375 32.328125 19.269531 C 32.371094 19.246094 32.410156 19.226562 32.453125 19.203125 C 32.492188 19.179688 32.53125 19.15625 32.570312 19.132812 C 32.648438 19.085938 32.722656 19.039062 32.796875 18.996094 C 32.871094 18.949219 32.945312 18.90625 33.015625 18.863281 C 33.050781 18.84375 33.085938 18.820312 33.121094 18.800781 C 33.15625 18.777344 33.1875 18.753906 33.222656 18.734375 C 33.355469 18.644531 33.480469 18.5625 33.601562 18.480469 C 33.660156 18.441406 33.71875 18.402344 33.777344 18.367188 C 33.832031 18.328125 33.882812 18.289062 33.9375 18.25 C 34.039062 18.175781 34.136719 18.105469 34.226562 18.039062 C 34.269531 18.007812 34.3125 17.976562 34.355469 17.945312 C 34.375 17.929688 34.398438 17.914062 34.417969 17.902344 C 34.4375 17.886719 34.457031 17.871094 34.472656 17.855469 C 34.546875 17.796875 34.613281 17.746094 34.675781 17.699219 C 34.914062 17.507812 35.042969 17.410156 35.042969 17.410156 C 35.042969 17.410156 34.941406 17.535156 34.746094 17.773438 C 34.699219 17.832031 34.644531 17.898438 34.582031 17.972656 C 34.570312 17.992188 34.554688 18.011719 34.539062 18.027344 C 34.519531 18.046875 34.503906 18.066406 34.484375 18.085938 C 34.453125 18.125 34.414062 18.164062 34.378906 18.207031 C 34.300781 18.289062 34.21875 18.378906 34.132812 18.476562 C 34.089844 18.523438 34.042969 18.574219 33.996094 18.625 C 33.945312 18.671875 33.894531 18.722656 33.84375 18.773438 C 33.738281 18.878906 33.628906 18.988281 33.511719 19.101562 C 33.484375 19.132812 33.453125 19.160156 33.425781 19.1875 C 33.394531 19.21875 33.363281 19.246094 33.328125 19.273438 C 33.265625 19.332031 33.199219 19.390625 33.132812 19.449219 C 33.066406 19.507812 32.996094 19.570312 32.929688 19.632812 C 32.890625 19.664062 32.859375 19.695312 32.820312 19.726562 C 32.785156 19.757812 32.746094 19.789062 32.707031 19.816406 C 32.554688 19.941406 32.398438 20.070312 32.234375 20.199219 C 31.5625 20.710938 30.757812 21.25 29.804688 21.746094 C 28.855469 22.242188 27.757812 22.699219 26.527344 23.042969 C 26.375 23.089844 26.214844 23.125 26.058594 23.164062 C 25.898438 23.199219 25.742188 23.238281 25.578125 23.277344 C 25.417969 23.308594 25.253906 23.339844 25.085938 23.371094 C 24.921875 23.402344 24.753906 23.4375 24.585938 23.457031 C 23.90625 23.5625 23.203125 23.621094 22.480469 23.640625 C 21.753906 23.664062 21.015625 23.632812 20.261719 23.5625 C 19.511719 23.492188 18.75 23.378906 17.984375 23.226562 C 16.453125 22.914062 14.910156 22.429688 13.398438 21.808594 C 11.882812 21.1875 10.46875 20.46875 9.152344 19.71875 C 8.492188 19.339844 7.855469 18.960938 7.238281 18.578125 C 6.933594 18.386719 6.628906 18.191406 6.332031 18.003906 C 6.183594 17.90625 6.039062 17.8125 5.890625 17.714844 L 5.835938 17.679688 L 5.761719 17.632812 C 5.695312 17.59375 5.632812 17.550781 5.566406 17.511719 C 5.441406 17.429688 5.3125 17.351562 5.1875 17.269531 C 5.125 17.230469 5.0625 17.191406 4.996094 17.148438 C 4.933594 17.109375 4.875 17.070312 4.808594 17.027344 C 4.683594 16.945312 4.5625 16.863281 4.4375 16.78125 C 4.3125 16.699219 4.191406 16.617188 4.070312 16.535156 L 3.976562 16.472656 L 3.96875 16.464844 C 3.960938 16.464844 3.96875 16.457031 3.96875 16.453125 L 3.984375 16.429688 L 4.011719 16.378906 C 4.050781 16.3125 4.085938 16.246094 4.125 16.179688 C 4.199219 16.046875 4.273438 15.917969 4.347656 15.785156 C 4.421875 15.65625 4.496094 15.53125 4.566406 15.402344 C 4.601562 15.339844 4.640625 15.277344 4.675781 15.214844 C 4.710938 15.152344 4.753906 15.089844 4.789062 15.027344 C 4.867188 14.90625 4.945312 14.78125 5.019531 14.660156 L 5.078125 14.570312 C 5.085938 14.554688 5.09375 14.546875 5.101562 14.535156 L 5.117188 14.511719 C 5.144531 14.476562 5.167969 14.441406 5.191406 14.40625 C 5.242188 14.335938 5.292969 14.265625 5.339844 14.199219 C 5.390625 14.128906 5.441406 14.0625 5.492188 13.996094 C 5.542969 13.929688 5.59375 13.863281 5.644531 13.796875 C 5.695312 13.730469 5.75 13.667969 5.800781 13.601562 C 5.824219 13.570312 5.851562 13.539062 5.878906 13.507812 C 5.902344 13.476562 5.929688 13.445312 5.957031 13.414062 C 6.007812 13.351562 6.0625 13.289062 6.113281 13.226562 C 6.167969 13.164062 6.222656 13.105469 6.273438 13.046875 C 7.128906 12.089844 8.03125 11.308594 8.910156 10.6875 C 9.347656 10.378906 9.78125 10.105469 10.199219 9.867188 C 10.304688 9.808594 10.40625 9.746094 10.511719 9.691406 C 10.613281 9.636719 10.714844 9.585938 10.816406 9.53125 C 11.019531 9.429688 11.214844 9.332031 11.40625 9.246094 C 11.597656 9.15625 11.785156 9.078125 11.964844 9 C 12.054688 8.964844 12.144531 8.929688 12.234375 8.894531 C 12.320312 8.859375 12.40625 8.828125 12.492188 8.796875 C 12.574219 8.769531 12.65625 8.738281 12.738281 8.707031 C 12.820312 8.679688 12.898438 8.65625 12.976562 8.628906 C 13.054688 8.605469 13.132812 8.578125 13.207031 8.554688 C 13.28125 8.535156 13.351562 8.511719 13.421875 8.492188 C 13.988281 8.328125 14.433594 8.234375 14.734375 8.175781 C 14.886719 8.148438 15.003906 8.128906 15.078125 8.117188 C 15.15625 8.105469 15.195312 8.097656 15.195312 8.097656 " fill-opacity="1" fill-rule="nonzero"/></g></g></g></g></svg>